<svg width="32" height="32" viewBox="0 0 32 32" fill="none" xmlns="http://www.w3.org/2000/svg">
<g clip-path="url(#clip0_180_10)">
<mask id="mask0_180_10" style="mask-type:luminance" maskUnits="userSpaceOnUse" x="0" y="7" width="33" height="19">
<path d="M32.0376 7H0V25.32H32.0376V7Z" fill="white"/>
</mask>
<g mask="url(#mask0_180_10)">
<path d="M26.0087 11.2537C26.0087 11.94 25.4961 12.5074 24.852 12.5074C24.2078 12.5074 23.6953 11.94 23.6953 11.2537C23.6953 10.5674 24.2078 10 24.852 10C25.4961 10 26.0087 10.5674 26.0087 11.2537Z" fill="#FAFF00"/>
<path d="M0.110353 20.1884H18.9213C19.0005 20.1884 19.0358 20.0806 18.9743 20.0265L9.56882 11.7552C9.53797 11.728 9.49374 11.728 9.46282 11.7552L0.0573481 20.0265C-0.00417541 20.0806 0.0311218 20.1884 0.110353 20.1884Z" fill="#686867"/>
<path d="M12.0718 20.1627H31.9186C32.0032 20.1627 32.0349 20.0426 31.9631 19.9941L22.0397 13.2973C22.0125 13.2789 21.978 13.2789 21.9508 13.2973L12.0273 19.9941C11.9555 20.0426 11.9872 20.1627 12.0718 20.1627Z" fill="#828282"/>
<path d="M3.56589 20.1817H2.47695V14.0208H0.54306V13.0218H5.49527V14.0208H3.56589V20.1817ZM8.36444 13.0218C8.93383 13.0218 9.40374 13.0969 9.77424 13.2471C10.1478 13.3973 10.4249 13.6258 10.6056 13.9327C10.7893 14.2396 10.8813 14.6297 10.8813 15.1032C10.8813 15.4558 10.821 15.7561 10.7005 16.0043C10.58 16.2524 10.4219 16.4581 10.2261 16.6213C10.0303 16.7846 9.82093 16.9152 9.598 17.0131L11.4731 20.1817H10.2486L8.65362 17.3118H7.59182V20.1817H6.5074V13.0218H8.36444ZM8.29217 14.0013H7.59182V16.3422H8.34187C8.84494 16.3422 9.20941 16.241 9.43535 16.0386C9.66425 15.8361 9.77873 15.5374 9.77873 15.1423C9.77873 14.7277 9.65674 14.4339 9.41278 14.2608C9.17176 14.0878 8.79825 14.0013 8.29217 14.0013ZM16.5112 20.1817L15.8651 18.1934H13.3392L12.6932 20.1817H11.55L14.008 12.9924H15.2099L17.6634 20.1817H16.5112ZM15.585 17.1846L14.9569 15.2256C14.9328 15.1407 14.8982 15.0215 14.8529 14.8681C14.8078 14.7114 14.7626 14.553 14.7174 14.393C14.6722 14.2298 14.6346 14.0927 14.6044 13.9817C14.5743 14.1155 14.5366 14.2657 14.4915 14.4322C14.4493 14.5955 14.4071 14.7489 14.3649 14.8926C14.3258 15.0362 14.2957 15.1472 14.2746 15.2256L13.642 17.1846H15.585ZM23.4335 13.0218L21.1245 20.1817H19.9769L17.6679 13.0218H18.7795L20.1711 17.5078C20.2133 17.6383 20.2585 17.7967 20.3067 17.9828C20.3579 18.1689 20.4046 18.3566 20.4468 18.546C20.492 18.7354 20.5266 18.9035 20.5507 19.0504C20.5748 18.9035 20.6079 18.7354 20.6501 18.546C20.6953 18.3566 20.742 18.1689 20.7902 17.9828C20.8384 17.7967 20.8836 17.6367 20.9257 17.5028L22.3219 13.0218H23.4335ZM24.301 20.1817V13.0218H25.3854V20.1817H24.301ZM30.9431 18.2326C30.9431 18.657 30.8467 19.0227 30.6539 19.3296C30.4642 19.6364 30.1901 19.8715 29.8316 20.0347C29.4761 20.198 29.0514 20.2796 28.5573 20.2796C28.3164 20.2796 28.086 20.265 27.866 20.2356C27.6461 20.2062 27.4383 20.1638 27.2425 20.1082C27.0497 20.0495 26.8735 19.9793 26.7139 19.8977V18.7908C26.982 18.9182 27.2817 19.0341 27.613 19.1385C27.9443 19.2398 28.2818 19.2904 28.6251 19.2904C28.9053 19.2904 29.1372 19.2512 29.321 19.1729C29.5077 19.0912 29.6463 18.977 29.7367 18.83C29.8271 18.6798 29.8722 18.5052 29.8722 18.306C29.8722 18.0938 29.8195 17.9142 29.7141 17.7673C29.6087 17.6204 29.449 17.4865 29.2351 17.3657C29.0243 17.2417 28.7592 17.1094 28.4399 16.969C28.223 16.8744 28.0152 16.7666 27.8163 16.6458C27.6205 16.525 27.4458 16.383 27.2922 16.2198C27.1386 16.0565 27.0166 15.8639 26.9262 15.6419C26.8389 15.4166 26.7952 15.1521 26.7952 14.8485C26.7952 14.4436 26.884 14.0976 27.0617 13.8103C27.2425 13.5229 27.4955 13.3026 27.8209 13.1491C28.1492 12.9957 28.5317 12.9189 28.9686 12.9189C29.315 12.9189 29.6403 12.9581 29.9446 13.0365C30.2518 13.1148 30.553 13.2258 30.8482 13.3695L30.5048 14.3147C30.2337 14.1939 29.9701 14.0976 29.7141 14.0257C29.4611 13.9539 29.202 13.918 28.937 13.918C28.708 13.918 28.5137 13.9556 28.354 14.0306C28.1944 14.1057 28.0724 14.2118 27.988 14.349C27.9067 14.4828 27.866 14.6428 27.866 14.8289C27.866 15.0379 27.9127 15.2142 28.0061 15.3578C28.1025 15.4982 28.2501 15.6272 28.449 15.7447C28.6508 15.8622 28.9098 15.9928 29.2261 16.1365C29.5906 16.2997 29.8993 16.4711 30.1523 16.6507C30.4084 16.8303 30.6042 17.0458 30.7398 17.2972C30.8753 17.5453 30.9431 17.8571 30.9431 18.2326Z" fill="white"/>
</g>
</g>
<defs>
<clipPath id="clip0_180_10">
<rect width="32" height="32" fill="white"/>
</clipPath>
</defs>
</svg>
