<svg width="171" height="63" viewBox="0 0 171 63" fill="none" xmlns="http://www.w3.org/2000/svg">
<g clip-path="url(#clip0_29_61)">
<mask id="mask0_29_61" style="mask-type:luminance" maskUnits="userSpaceOnUse" x="0" y="0" width="171" height="63">
<path d="M171 0H0V63H171V0Z" fill="white"/>
</mask>
<g mask="url(#mask0_29_61)">
<path d="M138.821 8.8125C138.821 12.1997 136.085 15 132.647 15C129.208 15 126.473 12.1997 126.473 8.8125C126.473 5.42531 129.208 2.625 132.647 2.625C136.085 2.625 138.821 5.42531 138.821 8.8125Z" fill="#FAFF00" stroke="#FAFF00" stroke-width="2" stroke-linecap="round"/>
<path d="M0.588952 52.9076H100.992C101.415 52.9076 101.603 52.3755 101.275 52.1085L51.0732 11.2871C50.9086 11.153 50.6725 11.153 50.5075 11.2871L0.306038 52.1085C-0.0223419 52.3755 0.166056 52.9076 0.588952 52.9076Z" fill="#9F892F"/>
<path d="M64.4329 52.7812H170.365C170.816 52.7812 170.985 52.1884 170.602 51.9491L117.636 18.8981C117.491 18.8074 117.307 18.8074 117.162 18.8981L64.1953 51.9491C63.8122 52.1884 63.9813 52.7812 64.4329 52.7812Z" fill="#9F892F"/>
<path d="M3.06506 62.625H2.00829V57.0967H0.131546V56.2001H4.93741V57.0967H3.06506V62.625ZM10.0546 56.2001C10.6071 56.2001 11.0631 56.2676 11.4227 56.4023C11.7852 56.5373 12.0541 56.742 12.2295 57.0176C12.4079 57.2929 12.497 57.6431 12.497 58.068C12.497 58.3841 12.4385 58.6537 12.3216 58.8765C12.2047 59.0992 12.0512 59.2837 11.8612 59.43C11.6712 59.5766 11.468 59.694 11.2517 59.7817L13.0714 62.625H11.8831L10.3352 60.0499H9.30479V62.625H8.25241V56.2001H10.0546ZM9.98445 57.0791H9.30479V59.1795H10.0327C10.5209 59.1795 10.8746 59.0887 11.0938 58.9072C11.316 58.7257 11.4271 58.4576 11.4271 58.1029C11.4271 57.7309 11.3087 57.4672 11.0719 57.312C10.838 57.1567 10.4756 57.0791 9.98445 57.0791ZM21.0739 56.2001L18.8332 62.625H17.7195L15.4788 56.2001H16.5574L17.908 60.2257C17.9489 60.3428 17.9928 60.4849 18.0395 60.6518C18.0893 60.819 18.1345 60.9874 18.1755 61.1572C18.2193 61.3271 18.2529 61.4779 18.2763 61.6099C18.2997 61.4779 18.3319 61.3271 18.3728 61.1572C18.4167 60.9874 18.4619 60.819 18.5087 60.6518C18.5555 60.4849 18.5993 60.3412 18.6403 60.2212L19.9952 56.2001H21.0739ZM31.2469 62.625V56.2001H32.2993V62.625H31.2469ZM41.6742 62.625H40.3807L37.2411 57.4965H37.2016C37.2133 57.6694 37.2236 57.8524 37.2323 58.0459C37.244 58.2394 37.2528 58.4385 37.2586 58.6436C37.2674 58.8487 37.2747 59.0565 37.2805 59.2676V62.625H36.3246V56.2001H37.6095L40.7448 61.2934H40.7755C40.7695 61.1441 40.7624 60.9727 40.7534 60.7792C40.7448 60.5857 40.7358 60.3866 40.7272 60.1815C40.7212 59.9737 40.7167 59.7731 40.7141 59.5796V56.2001H41.6742V62.625ZM46.7343 62.625H45.6907V56.2001H49.3127V57.0877H46.7343V59.0917H49.1462V59.9753H46.7343V62.625ZM58.5037 59.4037C58.5037 59.8987 58.4408 60.3502 58.3151 60.7575C58.1924 61.1617 58.0064 61.5101 57.758 61.8034C57.5095 62.0933 57.1982 62.3175 56.824 62.4757C56.4498 62.6336 56.0113 62.7127 55.5088 62.7127C54.9969 62.7127 54.5527 62.6336 54.1756 62.4757C53.8014 62.3175 53.4901 62.0917 53.2416 61.7989C52.9962 61.506 52.8121 61.1557 52.689 60.7485C52.5662 60.3412 52.5049 59.8901 52.5049 59.3951C52.5049 58.7329 52.613 58.1557 52.8296 57.6637C53.0485 57.1684 53.3804 56.7847 53.825 56.5121C54.2721 56.2369 54.8364 56.0993 55.5174 56.0993C56.1838 56.0993 56.7379 56.2354 57.1791 56.508C57.6206 56.7802 57.951 57.1642 58.1703 57.6592C58.3926 58.1512 58.5037 58.7329 58.5037 59.4037ZM53.6098 59.4037C53.6098 59.8987 53.6772 60.3281 53.8115 60.6915C53.9462 61.0519 54.1524 61.3301 54.43 61.5263C54.7106 61.7198 55.0702 61.8165 55.5088 61.8165C55.9499 61.8165 56.3095 61.7198 56.5872 61.5263C56.8652 61.3301 57.0699 61.0519 57.2012 60.6915C57.3329 60.3281 57.3984 59.8987 57.3984 59.4037C57.3984 58.6507 57.248 58.062 56.9467 57.6371C56.6489 57.2096 56.1722 56.9955 55.5174 56.9955C55.0788 56.9955 54.7178 57.0922 54.4345 57.2857C54.1539 57.4789 53.9462 57.756 53.8115 58.1164C53.6772 58.4737 53.6098 58.9027 53.6098 59.4037ZM64.0154 56.2001C64.568 56.2001 65.0238 56.2676 65.3834 56.4023C65.7459 56.5373 66.015 56.742 66.1905 57.0176C66.3686 57.2929 66.4576 57.6431 66.4576 58.068C66.4576 58.3841 66.3993 58.6537 66.2825 58.8765C66.1654 59.0992 66.012 59.2837 65.8219 59.43C65.6318 59.5766 65.4286 59.694 65.2124 59.7817L67.0324 62.625H65.844L64.296 60.0499H63.2655V62.625H62.2133V56.2001H64.0154ZM63.9454 57.0791H63.2655V59.1795H63.9933C64.4816 59.1795 64.8352 59.0887 65.0545 58.9072C65.2767 58.7257 65.3879 58.4576 65.3879 58.1029C65.3879 57.7309 65.2696 57.4672 65.0328 57.312C64.7989 57.1567 64.4363 57.0791 63.9454 57.0791ZM73.0484 62.625L71.2022 57.2591H71.1629C71.1716 57.3795 71.1817 57.5434 71.1936 57.7515C71.2052 57.9596 71.2153 58.182 71.2243 58.4194C71.2329 58.6567 71.2374 58.8836 71.2374 59.1007V62.625H70.2814V56.2001H71.759L73.5349 61.3286H73.5614L75.3987 56.2001H76.8718V62.625H75.8679V59.0479C75.8679 58.8517 75.8709 58.6391 75.8765 58.4107C75.8855 58.182 75.8941 57.9652 75.9031 57.7601C75.9146 57.555 75.9233 57.3911 75.9292 57.2681H75.8941L73.9779 62.625H73.0484ZM84.8658 62.625L84.2386 60.8407H81.7874L81.1603 62.625H80.0512L82.4362 56.1739H83.6029L85.9838 62.625H84.8658ZM83.9666 59.9355L83.3571 58.1779C83.3339 58.1018 83.3002 57.9945 83.2564 57.8569C83.2126 57.7162 83.1689 57.5741 83.1247 57.4305C83.0809 57.2842 83.0446 57.1612 83.0151 57.0615C82.9859 57.1815 82.9496 57.3165 82.9054 57.4657C82.8647 57.6124 82.8239 57.75 82.7827 57.879C82.7449 58.008 82.7157 58.1074 82.6952 58.1779L82.0811 59.9355H83.9666ZM91.3858 62.625H90.3292V57.0967H88.4527V56.2001H93.2582V57.0967H91.3858V62.625ZM96.5735 62.625V56.2001H97.6257V62.625H96.5735ZM107.343 59.4037C107.343 59.8987 107.28 60.3502 107.154 60.7575C107.031 61.1617 106.846 61.5101 106.597 61.8034C106.349 62.0933 106.038 62.3175 105.663 62.4757C105.289 62.6336 104.851 62.7127 104.348 62.7127C103.836 62.7127 103.392 62.6336 103.015 62.4757C102.641 62.3175 102.329 62.0917 102.081 61.7989C101.835 61.506 101.651 61.1557 101.528 60.7485C101.406 60.3412 101.344 59.8901 101.344 59.3951C101.344 58.7329 101.452 58.1557 101.669 57.6637C101.888 57.1684 102.22 56.7847 102.664 56.5121C103.111 56.2369 103.675 56.0993 104.357 56.0993C105.023 56.0993 105.577 56.2354 106.019 56.508C106.46 56.7802 106.79 57.1642 107.009 57.6592C107.232 58.1512 107.343 58.7329 107.343 59.4037ZM102.449 59.4037C102.449 59.8987 102.517 60.3281 102.651 60.6915C102.785 61.0519 102.991 61.3301 103.269 61.5263C103.55 61.7198 103.909 61.8165 104.348 61.8165C104.789 61.8165 105.149 61.7198 105.427 61.5263C105.704 61.3301 105.909 61.0519 106.041 60.6915C106.172 60.3281 106.238 59.8987 106.238 59.4037C106.238 58.6507 106.087 58.062 105.786 57.6371C105.488 57.2096 105.012 56.9955 104.357 56.9955C103.918 56.9955 103.557 57.0922 103.274 57.2857C102.993 57.4789 102.785 57.756 102.651 58.1164C102.517 58.4737 102.449 58.9027 102.449 59.4037ZM116.402 62.625H115.108L111.969 57.4965H111.929C111.941 57.6694 111.951 57.8524 111.96 58.0459C111.972 58.2394 111.981 58.4385 111.986 58.6436C111.995 58.8487 112.002 59.0565 112.008 59.2676V62.625H111.052V56.2001H112.337L115.473 61.2934H115.503C115.497 61.1441 115.49 60.9727 115.481 60.7792C115.473 60.5857 115.464 60.3866 115.455 60.1815C115.449 59.9737 115.444 59.7731 115.442 59.5796V56.2001H116.402V62.625ZM131.118 60.876C131.118 61.257 131.024 61.5851 130.837 61.8604C130.653 62.1356 130.387 62.3467 130.039 62.493C129.694 62.6396 129.282 62.7127 128.803 62.7127C128.569 62.7127 128.345 62.6996 128.132 62.6734C127.918 62.6471 127.716 62.6089 127.526 62.559C127.339 62.5065 127.168 62.4435 127.013 62.37V61.377C127.274 61.4914 127.565 61.5952 127.886 61.689C128.208 61.7797 128.535 61.8251 128.868 61.8251C129.14 61.8251 129.365 61.7899 129.544 61.7197C129.725 61.6466 129.859 61.5439 129.947 61.4123C130.035 61.2773 130.079 61.1205 130.079 60.942C130.079 60.7515 130.027 60.5903 129.925 60.4586C129.823 60.3266 129.668 60.2066 129.46 60.0982C129.256 59.9869 128.998 59.868 128.689 59.742C128.478 59.6572 128.276 59.5605 128.083 59.4521C127.893 59.3437 127.724 59.2162 127.575 59.07C127.426 58.9234 127.307 58.7505 127.22 58.5514C127.135 58.3492 127.092 58.1119 127.092 57.8393C127.092 57.4763 127.179 57.1654 127.351 56.9077C127.526 56.6497 127.772 56.4521 128.088 56.3145C128.406 56.1769 128.778 56.1079 129.202 56.1079C129.538 56.1079 129.853 56.1431 130.149 56.2132C130.447 56.2837 130.739 56.3831 131.026 56.5121L130.692 57.3604C130.429 57.252 130.174 57.1654 129.925 57.1012C129.679 57.0367 129.428 57.0045 129.171 57.0045C128.949 57.0045 128.76 57.0383 128.605 57.1054C128.45 57.1729 128.332 57.2681 128.25 57.3911C128.171 57.5111 128.132 57.6547 128.132 57.8216C128.132 58.0091 128.177 58.1674 128.268 58.2964C128.361 58.4224 128.504 58.5382 128.697 58.6436C128.893 58.749 129.145 58.8664 129.451 58.995C129.805 59.1416 130.105 59.2954 130.35 59.4566C130.599 59.6175 130.789 59.811 130.921 60.0368C131.052 60.2591 131.118 60.5392 131.118 60.876ZM136.503 59.1315L138.024 56.2001H139.16L137.029 60.129V62.625H135.981V60.1684L133.845 56.2001H134.99L136.503 59.1315ZM146.035 60.876C146.035 61.257 145.942 61.5851 145.755 61.8604C145.57 62.1356 145.304 62.3467 144.956 62.493C144.612 62.6396 144.199 62.7127 143.72 62.7127C143.486 62.7127 143.262 62.6996 143.049 62.6734C142.836 62.6471 142.634 62.6089 142.444 62.559C142.257 62.5065 142.086 62.4435 141.931 62.37V61.377C142.191 61.4914 142.482 61.5952 142.804 61.689C143.125 61.7797 143.453 61.8251 143.786 61.8251C144.058 61.8251 144.283 61.7899 144.461 61.7197C144.642 61.6466 144.777 61.5439 144.864 61.4123C144.952 61.2773 144.996 61.1205 144.996 60.942C144.996 60.7515 144.945 60.5903 144.843 60.4586C144.74 60.3266 144.585 60.2066 144.378 60.0982C144.173 59.9869 143.916 59.868 143.606 59.742C143.396 59.6572 143.194 59.5605 143.001 59.4521C142.811 59.3437 142.641 59.2162 142.492 59.07C142.343 58.9234 142.225 58.7505 142.137 58.5514C142.052 58.3492 142.01 58.1119 142.01 57.8393C142.01 57.4763 142.096 57.1654 142.269 56.9077C142.444 56.6497 142.69 56.4521 143.005 56.3145C143.324 56.1769 143.695 56.1079 144.119 56.1079C144.455 56.1079 144.771 56.1431 145.066 56.2132C145.364 56.2837 145.657 56.3831 145.943 56.5121L145.61 57.3604C145.347 57.252 145.091 57.1654 144.843 57.1012C144.597 57.0367 144.346 57.0045 144.088 57.0045C143.866 57.0045 143.677 57.0383 143.523 57.1054C143.368 57.1729 143.249 57.2681 143.167 57.3911C143.088 57.5111 143.049 57.6547 143.049 57.8216C143.049 58.0091 143.094 58.1674 143.185 58.2964C143.279 58.4224 143.422 58.5382 143.615 58.6436C143.811 58.749 144.062 58.8664 144.369 58.995C144.723 59.1416 145.022 59.2954 145.268 59.4566C145.517 59.6175 145.706 59.811 145.838 60.0368C145.969 60.2591 146.035 60.5392 146.035 60.876ZM151.828 62.625H150.771V57.0967H148.894V56.2001H153.7V57.0967H151.828V62.625ZM160.646 62.625H157.015V56.2001H160.646V57.0877H158.068V58.8326H160.484V59.7157H158.068V61.7329H160.646V62.625ZM167.131 62.625L165.285 57.2591H165.245C165.254 57.3795 165.265 57.5434 165.276 57.7515C165.288 57.9596 165.298 58.182 165.307 58.4194C165.316 58.6567 165.32 58.8836 165.32 59.1007V62.625H164.364V56.2001H165.842L167.618 61.3286H167.644L169.481 56.2001H170.955V62.625H169.95V59.0479C169.95 58.8517 169.953 58.6391 169.959 58.4107C169.968 58.182 169.977 57.9652 169.986 57.7601C169.997 57.555 170.006 57.3911 170.012 57.2681H169.977L168.061 62.625H167.131Z" fill="white"/>
<path d="M19.0327 52.875H13.2205V22.4692H2.89843V17.5386H29.3307V22.4692H19.0327V52.875ZM44.6448 17.5386C47.6839 17.5386 50.1921 17.9092 52.1696 18.6504C54.1632 19.3916 55.6423 20.5195 56.607 22.0342C57.5877 23.5488 58.0783 25.4743 58.0783 27.8108C58.0783 29.551 57.7565 31.0335 57.1136 32.2581C56.4704 33.4827 55.6263 34.4978 54.5812 35.3035C53.5361 36.1091 52.4188 36.7537 51.2289 37.237L61.2375 52.875H54.7017L46.1883 38.7113H40.521V52.875H34.7329V17.5386H44.6448ZM44.2591 22.3726H40.521V33.9258H44.5244C47.2095 33.9258 49.1548 33.4263 50.3608 32.4273C51.5825 31.4282 52.1935 29.9539 52.1935 28.0041C52.1935 25.9578 51.5425 24.5076 50.2403 23.6536C48.9539 22.7995 46.9603 22.3726 44.2591 22.3726ZM88.1279 52.875L84.6794 43.062H71.1977L67.7493 52.875H61.6476L74.767 17.3935H81.1823L94.2779 52.875H88.1279ZM83.1842 38.0831L79.8319 28.415C79.7032 27.9961 79.5184 27.408 79.277 26.6506C79.036 25.8772 78.7947 25.0957 78.5537 24.3061C78.3124 23.5005 78.1115 22.8237 77.9506 22.2759C77.79 22.9365 77.5887 23.6777 77.3477 24.4995C77.1225 25.3052 76.8976 26.0625 76.6724 26.7715C76.4636 27.4804 76.3027 28.0283 76.19 28.415L72.8138 38.0831H83.1842ZM125.075 17.5386L112.751 52.875H106.626L94.3018 17.5386H100.235L107.663 39.6784C107.888 40.3226 108.129 41.1041 108.386 42.0229C108.66 42.9412 108.909 43.8675 109.134 44.8024C109.375 45.7369 109.56 46.5667 109.689 47.2916C109.817 46.5667 109.994 45.7369 110.219 44.8024C110.46 43.8675 110.71 42.9412 110.967 42.0229C111.224 41.1041 111.465 40.3148 111.69 39.654L119.142 17.5386H125.075ZM129.706 52.875V17.5386H135.494V52.875H129.706ZM165.158 43.2555C165.158 45.3503 164.643 47.1548 163.614 48.6694C162.602 50.184 161.138 51.3442 159.225 52.1497C157.328 52.9556 155.061 53.3584 152.424 53.3584C151.138 53.3584 149.908 53.286 148.734 53.1409C147.56 52.9958 146.451 52.7865 145.406 52.5124C144.377 52.2225 143.436 51.876 142.584 51.4732V46.0106C144.015 46.6391 145.615 47.211 147.384 47.7266C149.152 48.2265 150.953 48.4763 152.786 48.4763C154.281 48.4763 155.519 48.2828 156.5 47.8961C157.497 47.493 158.236 46.9294 158.719 46.2041C159.201 45.4627 159.442 44.601 159.442 43.6178C159.442 42.5704 159.161 41.6842 158.598 40.9594C158.035 40.2341 157.183 39.5734 156.041 38.9771C154.916 38.3651 153.501 37.7123 151.797 37.0196C150.639 36.5523 149.53 36.0205 148.469 35.4243C147.424 34.8281 146.491 34.1272 145.671 33.3215C144.851 32.5159 144.2 31.5652 143.718 30.4695C143.252 29.3577 143.018 28.0525 143.018 26.5539C143.018 24.5559 143.493 22.8479 144.441 21.4299C145.406 20.0119 146.757 18.9243 148.493 18.167C150.245 17.4097 152.287 17.031 154.619 17.031C156.468 17.031 158.204 17.2243 159.828 17.6111C161.468 17.9978 163.076 18.5457 164.651 19.2546L162.819 23.9194C161.372 23.3232 159.965 22.8479 158.598 22.4934C157.247 22.1389 155.865 21.9617 154.45 21.9617C153.228 21.9617 152.191 22.147 151.339 22.5176C150.487 22.8882 149.836 23.4118 149.385 24.0886C148.951 24.7492 148.734 25.5388 148.734 26.4573C148.734 27.4885 148.983 28.3586 149.482 29.0676C149.996 29.7605 150.784 30.397 151.845 30.9771C152.923 31.5571 154.305 32.2017 155.994 32.9106C157.939 33.7163 159.587 34.5622 160.937 35.4485C162.304 36.3347 163.349 37.3982 164.072 38.6389C164.796 39.8636 165.158 41.4023 165.158 43.2555Z" fill="white"/>
</g>
</g>
<defs>
<clipPath id="clip0_29_61">
<rect width="171" height="63" fill="white"/>
</clipPath>
</defs>
</svg>
