<svg width="457" height="168" viewBox="0 0 457 168" fill="none" xmlns="http://www.w3.org/2000/svg">
<g clip-path="url(#clip0_29_8)">
<path d="M371 23.5C371 32.5325 363.688 40 354.5 40C345.311 40 338 32.5325 338 23.5C338 14.4675 345.311 7 354.5 7C363.688 7 371 14.4675 371 23.5Z" fill="#FAFF00" stroke="#FAFF00" stroke-width="2" stroke-linecap="round"/>
<path d="M1.57399 141.087H269.902C271.032 141.087 271.536 139.668 270.658 138.956L136.494 30.0989C136.054 29.7414 135.423 29.7414 134.982 30.0989L0.817899 138.956C-0.0597009 139.668 0.443795 141.087 1.57399 141.087Z" fill="#9F892F"/>
<path d="M172.198 140.75H455.302C456.509 140.75 456.961 139.169 455.937 138.531L314.384 50.3949C313.996 50.1532 313.504 50.1532 313.116 50.3949L171.563 138.531C170.539 139.169 170.991 140.75 172.198 140.75Z" fill="#9F892F"/>
<path d="M8.19141 167H5.36719V152.258H0.351562V149.867H13.1953V152.258H8.19141V167ZM26.8711 149.867C28.3477 149.867 29.5664 150.047 30.5273 150.406C31.4961 150.766 32.2148 151.312 32.6836 152.047C33.1602 152.781 33.3984 153.715 33.3984 154.848C33.3984 155.691 33.2422 156.41 32.9297 157.004C32.6172 157.598 32.207 158.09 31.6992 158.48C31.1914 158.871 30.6484 159.184 30.0703 159.418L34.9336 167H31.7578L27.6211 160.133H24.8672V167H22.0547V149.867H26.8711ZM26.6836 152.211H24.8672V157.812H26.8125C28.1172 157.812 29.0625 157.57 29.6484 157.086C30.2422 156.602 30.5391 155.887 30.5391 154.941C30.5391 153.949 30.2227 153.246 29.5898 152.832C28.9648 152.418 27.9961 152.211 26.6836 152.211ZM56.3203 149.867L50.332 167H47.3555L41.3672 149.867H44.25L47.8594 160.602C47.9688 160.914 48.0859 161.293 48.2109 161.738C48.3438 162.184 48.4648 162.633 48.5742 163.086C48.6914 163.539 48.7812 163.941 48.8438 164.293C48.9062 163.941 48.9922 163.539 49.1016 163.086C49.2188 162.633 49.3398 162.184 49.4648 161.738C49.5898 161.293 49.707 160.91 49.8164 160.59L53.4375 149.867H56.3203ZM83.5078 167V149.867H86.3203V167H83.5078ZM111.375 167H107.918L99.5273 153.324H99.4219C99.4531 153.785 99.4805 154.273 99.5039 154.789C99.5352 155.305 99.5586 155.836 99.5742 156.383C99.5977 156.93 99.6172 157.484 99.6328 158.047V167H97.0781V149.867H100.512L108.891 163.449H108.973C108.957 163.051 108.938 162.594 108.914 162.078C108.891 161.562 108.867 161.031 108.844 160.484C108.828 159.93 108.816 159.395 108.809 158.879V149.867H111.375V167ZM124.898 167H122.109V149.867H131.789V152.234H124.898V157.578H131.344V159.934H124.898V167ZM156.352 158.41C156.352 159.73 156.184 160.934 155.848 162.02C155.52 163.098 155.023 164.027 154.359 164.809C153.695 165.582 152.863 166.18 151.863 166.602C150.863 167.023 149.691 167.234 148.348 167.234C146.98 167.234 145.793 167.023 144.785 166.602C143.785 166.18 142.953 165.578 142.289 164.797C141.633 164.016 141.141 163.082 140.812 161.996C140.484 160.91 140.32 159.707 140.32 158.387C140.32 156.621 140.609 155.082 141.188 153.77C141.773 152.449 142.66 151.426 143.848 150.699C145.043 149.965 146.551 149.598 148.371 149.598C150.152 149.598 151.633 149.961 152.812 150.688C153.992 151.414 154.875 152.438 155.461 153.758C156.055 155.07 156.352 156.621 156.352 158.41ZM143.273 158.41C143.273 159.73 143.453 160.875 143.812 161.844C144.172 162.805 144.723 163.547 145.465 164.07C146.215 164.586 147.176 164.844 148.348 164.844C149.527 164.844 150.488 164.586 151.23 164.07C151.973 163.547 152.52 162.805 152.871 161.844C153.223 160.875 153.398 159.73 153.398 158.41C153.398 156.402 152.996 154.832 152.191 153.699C151.395 152.559 150.121 151.988 148.371 151.988C147.199 151.988 146.234 152.246 145.477 152.762C144.727 153.277 144.172 154.016 143.812 154.977C143.453 155.93 143.273 157.074 143.273 158.41ZM171.082 149.867C172.559 149.867 173.777 150.047 174.738 150.406C175.707 150.766 176.426 151.312 176.895 152.047C177.371 152.781 177.609 153.715 177.609 154.848C177.609 155.691 177.453 156.41 177.141 157.004C176.828 157.598 176.418 158.09 175.91 158.48C175.402 158.871 174.859 159.184 174.281 159.418L179.145 167H175.969L171.832 160.133H169.078V167H166.266V149.867H171.082ZM170.895 152.211H169.078V157.812H171.023C172.328 157.812 173.273 157.57 173.859 157.086C174.453 156.602 174.75 155.887 174.75 154.941C174.75 153.949 174.434 153.246 173.801 152.832C173.176 152.418 172.207 152.211 170.895 152.211ZM195.223 167L190.289 152.691H190.184C190.207 153.012 190.234 153.449 190.266 154.004C190.297 154.559 190.324 155.152 190.348 155.785C190.371 156.418 190.383 157.023 190.383 157.602V167H187.828V149.867H191.777L196.523 163.543H196.594L201.504 149.867H205.441V167H202.758V157.461C202.758 156.938 202.766 156.371 202.781 155.762C202.805 155.152 202.828 154.574 202.852 154.027C202.883 153.48 202.906 153.043 202.922 152.715H202.828L197.707 167H195.223ZM226.805 167L225.129 162.242H218.578L216.902 167H213.938L220.312 149.797H223.43L229.793 167H226.805ZM224.402 159.828L222.773 155.141C222.711 154.938 222.621 154.652 222.504 154.285C222.387 153.91 222.27 153.531 222.152 153.148C222.035 152.758 221.938 152.43 221.859 152.164C221.781 152.484 221.684 152.844 221.566 153.242C221.457 153.633 221.348 154 221.238 154.344C221.137 154.688 221.059 154.953 221.004 155.141L219.363 159.828H224.402ZM244.23 167H241.406V152.258H236.391V149.867H249.234V152.258H244.23V167ZM258.094 167V149.867H260.906V167H258.094ZM286.875 158.41C286.875 159.73 286.707 160.934 286.371 162.02C286.043 163.098 285.547 164.027 284.883 164.809C284.219 165.582 283.387 166.18 282.387 166.602C281.387 167.023 280.215 167.234 278.871 167.234C277.504 167.234 276.316 167.023 275.309 166.602C274.309 166.18 273.477 165.578 272.812 164.797C272.156 164.016 271.664 163.082 271.336 161.996C271.008 160.91 270.844 159.707 270.844 158.387C270.844 156.621 271.133 155.082 271.711 153.77C272.297 152.449 273.184 151.426 274.371 150.699C275.566 149.965 277.074 149.598 278.895 149.598C280.676 149.598 282.156 149.961 283.336 150.688C284.516 151.414 285.398 152.438 285.984 153.758C286.578 155.07 286.875 156.621 286.875 158.41ZM273.797 158.41C273.797 159.73 273.977 160.875 274.336 161.844C274.695 162.805 275.246 163.547 275.988 164.07C276.738 164.586 277.699 164.844 278.871 164.844C280.051 164.844 281.012 164.586 281.754 164.07C282.496 163.547 283.043 162.805 283.395 161.844C283.746 160.875 283.922 159.73 283.922 158.41C283.922 156.402 283.52 154.832 282.715 153.699C281.918 152.559 280.645 151.988 278.895 151.988C277.723 151.988 276.758 152.246 276 152.762C275.25 153.277 274.695 154.016 274.336 154.977C273.977 155.93 273.797 157.074 273.797 158.41ZM311.086 167H307.629L299.238 153.324H299.133C299.164 153.785 299.191 154.273 299.215 154.789C299.246 155.305 299.27 155.836 299.285 156.383C299.309 156.93 299.328 157.484 299.344 158.047V167H296.789V149.867H300.223L308.602 163.449H308.684C308.668 163.051 308.648 162.594 308.625 162.078C308.602 161.562 308.578 161.031 308.555 160.484C308.539 159.93 308.527 159.395 308.52 158.879V149.867H311.086V167ZM350.414 162.336C350.414 163.352 350.164 164.227 349.664 164.961C349.172 165.695 348.461 166.258 347.531 166.648C346.609 167.039 345.508 167.234 344.227 167.234C343.602 167.234 343.004 167.199 342.434 167.129C341.863 167.059 341.324 166.957 340.816 166.824C340.316 166.684 339.859 166.516 339.445 166.32V163.672C340.141 163.977 340.918 164.254 341.777 164.504C342.637 164.746 343.512 164.867 344.402 164.867C345.129 164.867 345.73 164.773 346.207 164.586C346.691 164.391 347.051 164.117 347.285 163.766C347.52 163.406 347.637 162.988 347.637 162.512C347.637 162.004 347.5 161.574 347.227 161.223C346.953 160.871 346.539 160.551 345.984 160.262C345.438 159.965 344.75 159.648 343.922 159.312C343.359 159.086 342.82 158.828 342.305 158.539C341.797 158.25 341.344 157.91 340.945 157.52C340.547 157.129 340.23 156.668 339.996 156.137C339.77 155.598 339.656 154.965 339.656 154.238C339.656 153.27 339.887 152.441 340.348 151.754C340.816 151.066 341.473 150.539 342.316 150.172C343.168 149.805 344.16 149.621 345.293 149.621C346.191 149.621 347.035 149.715 347.824 149.902C348.621 150.09 349.402 150.355 350.168 150.699L349.277 152.961C348.574 152.672 347.891 152.441 347.227 152.27C346.57 152.098 345.898 152.012 345.211 152.012C344.617 152.012 344.113 152.102 343.699 152.281C343.285 152.461 342.969 152.715 342.75 153.043C342.539 153.363 342.434 153.746 342.434 154.191C342.434 154.691 342.555 155.113 342.797 155.457C343.047 155.793 343.43 156.102 343.945 156.383C344.469 156.664 345.141 156.977 345.961 157.32C346.906 157.711 347.707 158.121 348.363 158.551C349.027 158.98 349.535 159.496 349.887 160.098C350.238 160.691 350.414 161.438 350.414 162.336ZM364.805 157.684L368.871 149.867H371.906L366.211 160.344V167H363.41V160.449L357.703 149.867H360.762L364.805 157.684ZM390.281 162.336C390.281 163.352 390.031 164.227 389.531 164.961C389.039 165.695 388.328 166.258 387.398 166.648C386.477 167.039 385.375 167.234 384.094 167.234C383.469 167.234 382.871 167.199 382.301 167.129C381.73 167.059 381.191 166.957 380.684 166.824C380.184 166.684 379.727 166.516 379.312 166.32V163.672C380.008 163.977 380.785 164.254 381.645 164.504C382.504 164.746 383.379 164.867 384.27 164.867C384.996 164.867 385.598 164.773 386.074 164.586C386.559 164.391 386.918 164.117 387.152 163.766C387.387 163.406 387.504 162.988 387.504 162.512C387.504 162.004 387.367 161.574 387.094 161.223C386.82 160.871 386.406 160.551 385.852 160.262C385.305 159.965 384.617 159.648 383.789 159.312C383.227 159.086 382.688 158.828 382.172 158.539C381.664 158.25 381.211 157.91 380.812 157.52C380.414 157.129 380.098 156.668 379.863 156.137C379.637 155.598 379.523 154.965 379.523 154.238C379.523 153.27 379.754 152.441 380.215 151.754C380.684 151.066 381.34 150.539 382.184 150.172C383.035 149.805 384.027 149.621 385.16 149.621C386.059 149.621 386.902 149.715 387.691 149.902C388.488 150.09 389.27 150.355 390.035 150.699L389.145 152.961C388.441 152.672 387.758 152.441 387.094 152.27C386.438 152.098 385.766 152.012 385.078 152.012C384.484 152.012 383.98 152.102 383.566 152.281C383.152 152.461 382.836 152.715 382.617 153.043C382.406 153.363 382.301 153.746 382.301 154.191C382.301 154.691 382.422 155.113 382.664 155.457C382.914 155.793 383.297 156.102 383.812 156.383C384.336 156.664 385.008 156.977 385.828 157.32C386.773 157.711 387.574 158.121 388.23 158.551C388.895 158.98 389.402 159.496 389.754 160.098C390.105 160.691 390.281 161.438 390.281 162.336ZM405.762 167H402.938V152.258H397.922V149.867H410.766V152.258H405.762V167ZM429.328 167H419.625V149.867H429.328V152.234H422.438V156.887H428.895V159.242H422.438V164.621H429.328V167ZM446.66 167L441.727 152.691H441.621C441.645 153.012 441.672 153.449 441.703 154.004C441.734 154.559 441.762 155.152 441.785 155.785C441.809 156.418 441.82 157.023 441.82 157.602V167H439.266V149.867H443.215L447.961 163.543H448.031L452.941 149.867H456.879V167H454.195V157.461C454.195 156.938 454.203 156.371 454.219 155.762C454.242 155.152 454.266 154.574 454.289 154.027C454.32 153.48 454.344 153.043 454.359 152.715H454.266L449.145 167H446.66Z" fill="black"/>
<path d="M50.8652 141H35.332V59.918H7.74609V46.7695H78.3867V59.918H50.8652V141ZM119.314 46.7695C127.436 46.7695 134.139 47.7578 139.424 49.7344C144.752 51.7109 148.705 54.7187 151.283 58.7578C153.904 62.7969 155.215 67.9316 155.215 74.1621C155.215 78.8027 154.355 82.7559 152.637 86.0215C150.918 89.2871 148.662 91.9941 145.869 94.1426C143.076 96.291 140.09 98.0098 136.91 99.2988L163.658 141H146.191L123.439 103.23H108.293V141H92.8242V46.7695H119.314ZM118.283 59.6602H108.293V90.4688H118.992C126.168 90.4688 131.367 89.1367 134.59 86.4727C137.855 83.8086 139.488 79.877 139.488 74.6777C139.488 69.2207 137.748 65.3535 134.268 63.0762C130.83 60.7988 125.502 59.6602 118.283 59.6602ZM235.523 141L226.307 114.832H190.277L181.061 141H164.754L199.816 46.3828H216.961L251.959 141H235.523ZM222.311 101.555L213.352 75.7734C213.008 74.6562 212.514 73.0879 211.869 71.0684C211.225 69.0059 210.58 66.9219 209.936 64.8164C209.291 62.668 208.754 60.8633 208.324 59.4023C207.895 61.1641 207.357 63.1406 206.713 65.332C206.111 67.4805 205.51 69.5 204.908 71.3906C204.35 73.2812 203.92 74.7422 203.619 75.7734L194.596 101.555H222.311ZM334.266 46.7695L301.33 141H284.959L252.023 46.7695H267.879L287.73 105.809C288.332 107.527 288.977 109.611 289.664 112.061C290.395 114.51 291.061 116.98 291.662 119.473C292.307 121.965 292.801 124.178 293.145 126.111C293.488 124.178 293.961 121.965 294.562 119.473C295.207 116.98 295.873 114.51 296.561 112.061C297.248 109.611 297.893 107.506 298.494 105.744L318.41 46.7695H334.266ZM346.641 141V46.7695H362.109V141H346.641ZM441.387 115.348C441.387 120.934 440.012 125.746 437.262 129.785C434.555 133.824 430.645 136.918 425.531 139.066C420.461 141.215 414.402 142.289 407.355 142.289C403.918 142.289 400.631 142.096 397.494 141.709C394.357 141.322 391.393 140.764 388.6 140.033C385.85 139.26 383.336 138.336 381.059 137.262V122.695C384.883 124.371 389.158 125.896 393.885 127.271C398.611 128.604 403.424 129.27 408.322 129.27C412.318 129.27 415.627 128.754 418.248 127.723C420.912 126.648 422.889 125.145 424.178 123.211C425.467 121.234 426.111 118.936 426.111 116.314C426.111 113.521 425.359 111.158 423.855 109.225C422.352 107.291 420.074 105.529 417.023 103.939C414.016 102.307 410.234 100.566 405.68 98.7188C402.586 97.4727 399.621 96.0547 396.785 94.4648C393.992 92.875 391.5 91.0059 389.309 88.8574C387.117 86.709 385.377 84.1738 384.088 81.252C382.842 78.2871 382.219 74.8066 382.219 70.8105C382.219 65.4824 383.486 60.9277 386.021 57.1465C388.6 53.3652 392.209 50.4648 396.85 48.4453C401.533 46.4258 406.99 45.416 413.221 45.416C418.162 45.416 422.803 45.9316 427.143 46.9629C431.525 47.9941 435.822 49.4551 440.033 51.3457L435.135 63.7852C431.268 62.1953 427.508 60.9277 423.855 59.9824C420.246 59.0371 416.551 58.5645 412.77 58.5645C409.504 58.5645 406.732 59.0586 404.455 60.0469C402.178 61.0352 400.438 62.4316 399.234 64.2363C398.074 65.998 397.494 68.1035 397.494 70.5527C397.494 73.3027 398.16 75.623 399.492 77.5137C400.867 79.3613 402.973 81.0586 405.809 82.6055C408.688 84.1523 412.383 85.8711 416.895 87.7617C422.094 89.9102 426.498 92.166 430.107 94.5293C433.76 96.8926 436.553 99.7285 438.486 103.037C440.42 106.303 441.387 110.406 441.387 115.348Z" fill="black"/>
</g>
<defs>
<clipPath id="clip0_29_8">
<rect width="457" height="168" fill="white"/>
</clipPath>
</defs>
</svg>
