<svg width="800" height="800" viewBox="0 0 800 800" fill="none" xmlns="http://www.w3.org/2000/svg">
<g clip-path="url(#clip0_585_10)">
<circle cx="400" cy="400" r="400" fill="#355764"/>
<g clip-path="url(#clip1_585_10)">
<path d="M617.969 568.75H245.312C241.445 568.75 238.281 565.586 238.281 561.719V189.062C238.281 185.181 235.131 182.031 231.25 182.031C227.369 182.031 224.219 185.181 224.219 189.062V231.25H182.031C178.15 231.25 175 234.4 175 238.281C175 242.162 178.15 245.312 182.031 245.312H224.219V561.719C224.219 573.348 233.683 582.812 245.312 582.812H561.719V625C561.719 628.881 564.869 632.031 568.75 632.031C572.631 632.031 575.781 628.881 575.781 625V582.812H617.969C621.85 582.812 625 579.663 625 575.781C625 571.9 621.85 568.75 617.969 568.75Z" fill="#5A8F7B"/>
<path d="M568.75 533.594C572.631 533.594 575.781 530.444 575.781 526.562V252.344C575.781 240.714 566.317 231.25 554.688 231.25H280.469C276.588 231.25 273.438 234.4 273.438 238.281C273.438 242.162 276.588 245.312 280.469 245.312H554.688C558.555 245.312 561.719 248.477 561.719 252.344V526.562C561.719 530.444 564.869 533.594 568.75 533.594Z" fill="#5A8F7B"/>
</g>
<path d="M463.562 292.232C479.835 292.232 496.107 286.024 508.501 273.608C533.333 248.776 538.481 153.75 538.481 153.75C538.481 153.75 443.456 158.899 418.624 183.709C404.831 197.502 398.983 216.041 400.53 234.072C400.424 234.686 400 235.216 400 235.852C400 247.611 396.97 254.963 392.203 262.018C390.021 258.84 387.605 255.768 384.787 252.95C359.956 228.118 264.93 222.991 264.93 222.991C264.93 222.991 270.078 318.017 294.889 342.848C307.305 355.264 323.577 361.472 339.827 361.472C346.629 361.472 353.366 360.137 359.871 357.955C361.523 365.201 363.897 371.536 366.736 377.151C324.636 391.156 294.062 430.416 294.062 477.241C294.062 511.776 310.843 542.18 336.438 561.503V619.875H378.812V581.038C392.606 583.835 406.928 583.941 421.188 581.038V662.25H463.562V561.503C489.157 542.159 505.938 511.776 505.938 477.241C505.938 423.742 466.147 379.969 414.641 372.786C405.827 362.15 400 354.205 400 337.573C400 310.961 415.53 305.304 429.726 282.337C440.044 288.863 451.782 292.232 463.562 292.232ZM448.117 214.156C454.049 210.024 470.321 205.511 490.195 201.973C486.636 221.847 482.123 238.246 478.055 244.093C469.834 251.848 456.74 251.785 448.583 243.627C440.468 235.534 440.32 222.461 448.117 214.156ZM354.828 312.868C346.671 321.025 333.577 321.089 325.356 313.334C321.225 307.402 316.712 291.13 313.174 271.235C333.026 274.794 349.447 279.307 355.294 283.375C363.07 291.681 362.922 304.775 354.828 312.868ZM463.562 477.241C463.562 512.285 435.044 540.803 400 540.803C364.956 540.803 336.438 512.285 336.438 477.241C336.438 442.197 364.956 413.678 400 413.678C435.044 413.678 463.562 442.197 463.562 477.241Z" fill="#F6F1F1"/>
</g>
<defs>
<clipPath id="clip0_585_10">
<rect width="800" height="800" fill="white"/>
</clipPath>
<clipPath id="clip1_585_10">
<rect width="450" height="450" fill="white" transform="translate(175 175)"/>
</clipPath>
</defs>
</svg>
